<?xml version="1.0"?>
<svg xmlns="http://www.w3.org/2000/svg" viewBox="0 0 64 64" width="512" height="512"><g id="Media"><path d="M17,8h1a1,1,0,0,0,0-2H17a1,1,0,0,0,0,2Z"/><path d="M22,8h1a1,1,0,0,0,0-2H22a1,1,0,0,0,0,2Z"/><path d="M22,50H18a2,2,0,0,0-2,2v1a2,2,0,0,0,2,2h4a2,2,0,0,0,2-2V52A2,2,0,0,0,22,50Zm-4,3V52h4v1Z"/><path d="M53,56H51a1,1,0,0,1-1-1,1,1,0,0,0-2,0,3,3,0,0,0,2.988,3l-.013.987A1,1,0,0,0,51.961,60h.014a1,1,0,0,0,1-.986L52.988,58H53a3,3,0,0,0,0-6H51a1,1,0,0,1,0-2h2a1,1,0,0,1,1,1,1,1,0,0,0,2,0,3,3,0,0,0-3-3V47a1,1,0,0,0-2,0v1a3,3,0,0,0,0,6h2a1,1,0,0,1,0,2Z"/><path d="M61,39a1,1,0,0,0,1-1V18a1,1,0,0,0-1-1H38V8a5,5,0,0,0-5-5H7A5,5,0,0,0,2,8V53a5,5,0,0,0,5,5H25v4a1,1,0,0,0,1,1H46a1,1,0,0,0,1-1v-.35a10,10,0,1,0,0-17.3V39ZM4,8A3.009,3.009,0,0,1,7,5H33a3.009,3.009,0,0,1,3,3V9H4Zm0,3H36v6H33a1,1,0,0,0-1,1v7.02a2.26,2.26,0,0,0-.26-.01A3.073,3.073,0,0,0,29,28.11V37H28a3.009,3.009,0,0,0-3,3v7H4ZM38,41a1,1,0,0,0,1-1V36a1,1,0,0,1,1-1,.949.949,0,0,1,.71.31A.928.928,0,0,1,41,36v4a1,1,0,0,0,2,0V38a1,1,0,0,1,1-1,.949.949,0,0,1,.71.31A.928.928,0,0,1,45,38V49.18a5.016,5.016,0,0,1-.84,2.78l-.66.98a3,3,0,0,0-.5,1.67V55H29v-.39a3,3,0,0,0-.5-1.67l-.66-.98A5.016,5.016,0,0,1,27,49.18V40a1,1,0,0,1,1-1h1v5a1,1,0,0,0,2,0V28.11A1.092,1.092,0,0,1,31.91,27a.985.985,0,0,1,.8.31A.928.928,0,0,1,33,28V40a1,1,0,0,0,2,0V35a1,1,0,0,1,1-1,.949.949,0,0,1,.71.31A.928.928,0,0,1,37,35v5A1,1,0,0,0,38,41ZM25,56H7a3.009,3.009,0,0,1-3-3V49H25v.18a7,7,0,0,0,1.18,3.89l.65.98a1.023,1.023,0,0,1,.17.56V55H26A1,1,0,0,0,25,56Zm20,5H27V57H45Zm7-16a8,8,0,1,1-5,14.23V56a1,1,0,0,0-1-1H45v-.39a1.023,1.023,0,0,1,.17-.56l.65-.98A7,7,0,0,0,47,49.18V46.77A7.947,7.947,0,0,1,52,45Zm-5.18-8a2.972,2.972,0,0,0-.69-1.11,3.061,3.061,0,0,0-3.23-.68,2.942,2.942,0,0,0-.77-1.32,3.085,3.085,0,0,0-3.6-.5,2.744,2.744,0,0,0-.4-.5A3.066,3.066,0,0,0,35,32.17V28a2.954,2.954,0,0,0-.87-2.11c-.04-.04-.09-.06-.13-.1V19H60V37Z"/><path d="M43.475,32.851a1,1,0,0,0,.972.044l8-4a1,1,0,0,0,0-1.79l-8-4A1,1,0,0,0,43,24v8A1,1,0,0,0,43.475,32.851ZM45,25.618,49.764,28,45,30.382Z"/><path d="M20,13a9,9,0,1,0,9,9A9.011,9.011,0,0,0,20,13ZM17,28.315V24a1,1,0,0,1,1-1h4a1,1,0,0,1,1,1v4.315a6.912,6.912,0,0,1-6,0ZM19,19a1,1,0,1,1,1,1A1,1,0,0,1,19,19Zm6,7.89V24a2.994,2.994,0,0,0-2.8-2.979,3,3,0,1,0-4.406,0A2.994,2.994,0,0,0,15,24v2.89a7,7,0,1,1,10,0Z"/><path d="M10,33H9a1,1,0,0,0,0,2h1a1,1,0,0,0,0-2Z"/><path d="M24,33H14a1,1,0,0,0,0,2H24a1,1,0,0,0,0-2Z"/><path d="M10,37H9a1,1,0,0,0,0,2h1a1,1,0,0,0,0-2Z"/><path d="M22,37H14a1,1,0,0,0,0,2h8a1,1,0,0,0,0-2Z"/><path d="M10,41H9a1,1,0,0,0,0,2h1a1,1,0,0,0,0-2Z"/><path d="M22,41H14a1,1,0,0,0,0,2h8a1,1,0,0,0,0-2Z"/><path d="M61,4H41a1,1,0,0,0-1,1v9a1,1,0,0,0,1,1H61a1,1,0,0,0,1-1V5A1,1,0,0,0,61,4Zm-1,9H42V6H60Z"/><path d="M45,9h1a1,1,0,0,0,0-2H45a1,1,0,0,0,0,2Z"/><path d="M45,12h1a1,1,0,0,0,0-2H45a1,1,0,0,0,0,2Z"/><path d="M50,9h7a1,1,0,0,0,0-2H50a1,1,0,0,0,0,2Z"/><path d="M50,12h7a1,1,0,0,0,0-2H50a1,1,0,0,0,0,2Z"/></g></svg>
