<svg xmlns="http://www.w3.org/2000/svg" height="197" width="229"><rect id="backgroundrect" width="100%" height="100%" x="0" y="0" fill="none" stroke="none"/><g class="currentLayer" style=""><title>Layer 1</title><g class="selected" fill-opacity="1" fill="#b2b2b2"><path d="m215.9468532204628,37.881668322195054 h-144.2438964878969 l-3.806710720062256,-15.370294519175529 c-1.6531904234132768,-6.7089778745718 -7.632665034586906,-11.395640679110526 -14.542824883624077,-11.395640679110526 h-4.224818776682854 v-4.123353365605355 c0,-3.855694130063057 -3.1366879834375383,-6.9923816656522755 -6.9923816656522755,-6.9923816656522755 h-26.379315804893494 c-8.687557869066238,0 -15.756913464719773,7.069355595653534 -15.756913464719773,15.756913464719773 c0,8.689307164604188 7.069355595653534,15.758662760257721 15.756913464719773,15.758662760257721 h26.379315804893494 c3.855693682214737,0 6.994130961190224,-3.1384372789754864 6.994130961190224,-6.994131409038544 v-4.448743384534835 h4.223069481144905 c2.7780595578937533,0 5.1817452390089045,1.8841122134170531 5.848269384557724,4.586946688999176 c0.012245964462280276,0.05248244892501833 28.011512890458107,114.00188937078858 34.26564481502247,138.35888965780066 c-6.0407039856367115,2.8112979645080567 -10.239281985705375,8.934224214608193 -10.239281985705375,16.02282340472412 c0,9.740700960159302 7.924815751205445,17.665516711364745 17.665516711364745,17.665516711364745 c8.19422473013401,0 15.100885540246964,-5.606850925629616 17.088212460279465,-13.187033511291505 h69.16107633005524 c1.9873269200325012,7.5801825856618885 8.895737025683403,13.187033511291505 17.088212460279465,13.187033511291505 c9.740700960159302,0 17.665516711364745,-7.924815751205445 17.665516711364745,-17.665516711364745 s-7.924815751205445,-17.665516711364745 -17.665516711364745,-17.665516711364745 c-8.19422473013401,0 -15.100885540246964,5.608600221167564 -17.088212460279465,13.187033511291505 h-69.16107633005524 c-1.871865801106453,-7.139331895654679 -8.112002465670585,-12.524008404666901 -15.679939086870194,-13.125804584676743 l-2.204253897884369,-8.904483951221467 c2.5751278400421143,1.0408971266307832 5.377678879012108,1.6094549000263214 8.295690589059829,1.6094549000263214 h87.67330627143383 c10.981030765717506,0 20.385845485871315,-8.202971655672073 21.874591380357742,-19.08253701031208 c3.402597475593567,-24.84858413040638 10.428217995708465,-76.14471107016945 11.232945445721626,-82.01747193580341 c1.0968786144800187,-8.017534684593201 -5.143258050084114,-15.160365171323777 -13.227269995754241,-15.160365171323777 zm-175.77346797287464,-15.323060404712677 h-24.416480365937232 c-3.7489803845233913,0 -6.7999470645732885,-3.0509666800498962 -6.7999470645732885,-6.801696360111237 c0,-3.7489803845233913 3.0509666800498962,-6.7999470645732885 6.7999470645732885,-6.7999470645732885 h24.416480365937232 zm164.05768605714513,147.77420104687883 c4.8038727711544045,0 8.708550311218263,3.906426835601807 8.708550311218263,8.708550311218263 s-3.906426835601807,8.708550311218263 -8.708550311218263,8.708550311218263 c-4.8003741800785065,0 -8.708550759066581,-3.906426835601807 -8.708550759066581,-8.708550311218263 s3.9081765789880754,-8.708550311218263 8.708550759066581,-8.708550311218263 zm-94.62895049154758,8.708550311218263 c0,4.8038727711544045 -3.9064272834501272,8.708550311218263 -8.708550759066581,8.708550311218263 s-8.710299606756209,-3.906426835601807 -8.710299606756209,-8.708550311218263 c0,-4.8003741800785065 3.908176131139755,-8.708550311218263 8.710299606756209,-8.708550311218263 c4.8003741800785065,0 8.708550759066581,3.906426835601807 8.708550759066581,8.708550311218263 zm99.46431282162666,-45.195942875201226 c-0.8852004189386368,6.465810120105743 -6.474557045643807,11.33965963910961 -12.999847244674683,11.33965963910961 h-87.67330627143383 c-5.398671769012451,0 -10.143064909090041,-3.2696429534397127 -12.13389042019844,-8.146990615671157 l-17.102207720279694,-69.05611188005352 h81.35794497240639 c2.4736624289646145,0 4.478483200073242,-2.004821218956947 4.478483200073242,-4.478483200073242 c0,-2.471912685578346 -2.0048207711086277,-4.478483200073242 -4.478483200073242,-4.478483200073242 h-83.57619368244266 l-3.0177278255872726,-12.18637242127514 h142.02564777786063 c2.660848695581436,0 4.714653324539184,2.3372084200382233 4.352525860071182,4.987560446695328 l-0.9866658300161363,7.198811974579811 h-22.969720699299813 c-2.471912685578346,0 -4.478483200073242,2.006570514494896 -4.478483200073242,4.478483200073242 c0,2.4736619811162948 2.006570514494896,4.478483200073242 4.478483200073242,4.478483200073242 h21.743386153741834 zm0,0 " id="svg_1" class="" fill="#b2b2b2"/><path d="m151.90104486833954,76.82172952944565 c-2.4719131334266664,0 -4.478483200073242,2.004821218956947 -4.478483200073242,4.478483200073242 v42.99168942516518 c0,2.4736624289646145 2.0065700666465762,4.478483200073242 4.478483200073242,4.478483200073242 c2.4736619811162948,0 4.478483200073242,-2.0048207711086277 4.478483200073242,-4.478483200073242 v-42.99168942516518 c0,-2.4736619811162948 -2.004821218956947,-4.478483200073242 -4.478483200073242,-4.478483200073242 zm0,0 " id="svg_2" class="" fill="#b2b2b2"/><path d="m108.7151710987091,86.11983050405979 c-0.5370682144708635,-2.414182350039482 -2.9285079311237334,-3.936167098988533 -5.342690729011536,-3.4008481800556183 c-2.4159316455774307,0.5370682144708635 -3.937915946678162,2.930257674510002 -3.4008481800556183,5.344440024549484 l8.265950773521425,37.19940108060837 c0.4653421710834504,2.087043035572052 2.31621553003788,3.5075619255952835 4.36827041560936,3.5075619255952835 c2.8655297089710237,0 4.99805711561966,-2.652101770043373 4.3752680456094755,-5.4511537700891495 zm0,0 " id="svg_3" class="" fill="#b2b2b2"/><path d="m196.87481243122673,82.64550698507881 c-2.4596667211160663,-0.2973990510807038 -4.684913061152458,1.459006078948021 -4.978813521157265,3.9134249134502412 l-4.4679869789972315,37.34285227168655 c-0.29390046000480674,2.4561681300401688 1.459006078948021,4.684913509000778 3.9151742089881902,4.978813969005585 c0.18018908446502693,0.020992890000343333 0.3603781689300539,0.03148911107635499 0.5370682144708635,0.03148911107635499 c2.2357425611124038,0 4.1688377366819385,-1.670683826641083 4.4399960111484535,-3.9466633200645447 l4.469736274535179,-37.341102976148605 c0.29390046000480674,-2.4561681300401688 -1.4590056310997008,-4.686662804538726 -3.9151742089881902,-4.978813969005585 zm0,0 " id="svg_4" class="" fill="#b2b2b2"/><path d="m178.4395564198494,59.025007143616676 h-0.01049666892433167 c-2.471912685578346,0 -4.471485122224808,2.006570514494896 -4.471485122224808,4.478483200073242 c0,2.4736619811162948 2.010069105570793,4.478483200073242 4.483731086687088,4.478483200073242 c2.4736624289646145,0 4.478483200073242,-2.004821218956947 4.478483200073242,-4.478483200073242 c0,-2.471912685578346 -2.0065700666465762,-4.478483200073242 -4.480232495611191,-4.478483200073242 zm0,0 " id="svg_5" class="" fill="#b2b2b2"/></g></g></svg>